<?xml version="1.0" encoding="utf-8"?>
<!-- Generator: Adobe Illustrator 24.0.1, SVG Export Plug-In . SVG Version: 6.00 Build 0)  -->
<svg version="1.1" id="Layer_1" xmlns="http://www.w3.org/2000/svg" xmlns:xlink="http://www.w3.org/1999/xlink" x="0px" y="0px"
	 viewBox="0 0 254 264" style="enable-background:new 0 0 254 264;" xml:space="preserve">
<style type="text/css">
	.st0{fill:#FFFFFF;}
</style>
<g>
	<path class="st0" d="M123.2,88.8h-6.9v9.1h6.9c2,0,3.9-1.4,3.9-4.6C127.2,90.2,125.2,88.8,123.2,88.8z"/>
	<path class="st0" d="M34,189.5c0,1.2,0.7,2.4,1.7,3l89.2,50.7c1.5,0.8,3.2,0.8,4.7,0l89.5-50.4c1.1-0.6,1.7-1.8,1.7-3l0-9.1H34
		L34,189.5z M164.9,190.7H176v2.6H172v12H169v-12h-4.1V190.7z M152.6,190.7h2.7l5.6,9.1v-9.1h2.9v14.5h-2.7l-5.6-9.1v9.1h-3V190.7z
		 M141.3,190.7h9.5v2.6h-6.5v3.4h5.6v2.5h-5.6v3.5h6.6v2.6h-9.5V190.7z M135.7,190.7h3v14.5h-3V190.7z M123.3,190.7h6.5
		c2.6,0,4.2,1.8,4.2,4.6c0,2.8-1.6,4.6-4.2,4.6h-3.6v5.4h-3V190.7z M117.8,190.7h3v14.5h-3V190.7z M104.7,195.7c0-3.3,2-5.2,5.7-5.2
		c2.9,0,5.4,1.5,5.4,5.1v0.2h-3v-0.2c0-1.7-1.3-2.4-2.6-2.4c-1.7,0-2.6,0.9-2.6,2.3v5.1c0,1.4,0.8,2.3,2.6,2.3
		c1.4,0,2.6-0.6,2.6-2.4v-0.2h3v0.2c0,3.6-2.5,5.1-5.4,5.1c-3.7,0-5.7-1.9-5.7-5.2V195.7z M93.8,190.7h9.5v2.6h-6.5v3.4h5.6v2.5
		h-5.6v3.5h6.6v2.6h-9.5V190.7z M80.8,190.7h6.3c3,0,4.5,1.7,4.5,4.5c0,2.1-1,3.5-2.4,4.2l2.7,4.8v1H89l-3-5.5h-2.2v5.5h-3V190.7z"
		/>
	<path class="st0" d="M131,195.3c0-1.4-0.9-2-1.7-2h-3v4h3C130.2,197.3,131,196.7,131,195.3z"/>
	<path class="st0" d="M88.6,195.3c0-1.5-0.7-2-2-2h-2.8v4h2.8C87.8,197.3,88.6,196.8,88.6,195.3z"/>
	<path class="st0" d="M221,75.1c0-1.2-0.7-2.4-1.7-3L129.4,20c-1.1-0.6-2.4-0.6-3.5,0l-90,51.8c-1.1,0.6-1.7,1.8-1.7,3l-0.1,53.1
		h186.9L221,75.1z M116,43.8c0-1.5,0.6-2.1,2.1-2.1h18.8c1.5,0,2.1,0.6,2.1,2.1v18.6c0,0.2,0,0.3,0,0.5c0,0.3,0,0.7-0.4,1
		c0,0-0.3,0.3-0.3,0.3c-0.2,0.1-0.3,0.1-0.5,0.2l-9.3,3.9c-0.5,0.2-0.7,0.3-1,0.3v0c0,0,0,0,0,0c0,0,0,0,0,0v0c-0.3,0-0.5-0.1-1-0.3
		l-9.3-3.9c-0.2-0.1-0.3-0.1-0.5-0.2c0,0-0.3-0.2-0.3-0.3c-0.3-0.4-0.3-0.7-0.4-1c0-0.1,0-0.3,0-0.5V43.8z M105.6,116H83.9V82.9
		h21.6v5.9H90.6v7.9h12.7v5.6H90.6v7.9h15V116z M103.3,56.8L104,61l-3.8-2l-3.8,2l0.7-4.3l-3.1-3l4.3-0.6l1.9-3.9l1.9,3.9l4.3,0.6
		L103.3,56.8z M124.5,103.8h-8.1V116h-6.7V82.9h14.8c6,0,9.5,4.1,9.5,10.5C134,99.7,130.4,103.8,124.5,103.8z M144.5,116h-6.7V82.9
		h6.7V116z M152.9,53.2l1.9-3.9l1.9,3.9l4.3,0.6l-3.1,3l0.7,4.3l-3.8-2l-3.8,2l0.7-4.3l-3.1-3L152.9,53.2z M174.9,94.3h-6.7v-0.5
		c0-3.9-2.9-5.4-6-5.4c-4,0-5.9,2-5.9,5.3v11.6c0,3.3,1.9,5.3,5.9,5.3c3.1,0,6-1.4,6-5.4v-0.5h6.7v0.5c0,8.2-5.8,11.6-12.3,11.6
		c-8.4,0-13-4.4-13-11.9V94.1c0-7.5,4.6-11.9,13-11.9c6.5,0,12.3,3.4,12.3,11.6V94.3z"/>
	<path class="st0" d="M159.6,160.2c0,1.2,0.9,2,2.6,2c1.8,0,3.1-0.6,4.2-1.8v-2.1h-3.8C160.1,158.3,159.6,159.4,159.6,160.2z"/>
	<path class="st0" d="M102.8,160.2c0,1.2,0.9,2,2.6,2c1.8,0,3.1-0.6,4.2-1.8v-2.1h-3.8C103.3,158.3,102.8,159.4,102.8,160.2z"/>
	<path class="st0" d="M85.7,160.2c1.8,0,3.1-1,4-2V153c-0.9-0.9-2.2-2-4-2c-1.4,0-2.9,1-2.9,3v3.2C82.7,159.1,84.3,160.2,85.7,160.2
		z"/>
	<path class="st0" d="M69.7,153.7c0-1.6-1.2-2.6-3.3-2.6c-2.2,0-3.3,1.1-3.3,2.6v0.9h6.6V153.7z"/>
	<path class="st0" d="M16.2,178h222.6v-47.4H16.2V178z M219.6,159.3l-5.1-1.3c-2.3-0.6-4.9-1.8-4.9-5.1c0-3.7,2.8-6,7.6-6
		c1.4,0,2.6,0.2,3.7,0.6c2.5,0.9,4,2.9,4.1,5.8h-4.1h-0.5c-0.1-1.5-1.4-2.2-3.6-2.2c-2,0-2.7,0.7-2.7,1.5c0,0.7,0.6,1.1,1.6,1.3
		l5.2,1.3l0.1,0c2.4,0.6,4.4,2,4.4,5c0,2.8-1.7,4.8-4.5,5.6c-1,0.3-2.1,0.5-3.3,0.5c-4.9,0-8.2-2.6-8.3-6.8h4.6
		c0.2,1.7,1.8,2.6,4.3,2.6c1.7,0,2.7-0.6,2.7-1.6C220.9,159.9,220.5,159.5,219.6,159.3z M194.8,147.3h2.7v-3.9h4.6v3.9h4.2v4h-4.2
		v7.5c0,2.4,1,3.1,2.7,3.1h1.5v4h-2c-5.5,0-6.8-3.5-6.8-7.1v-7.5h-2.7V147.3z M175.9,147.3h2.7l1.3,1.8c1.2-1.1,2.9-2.3,5.5-2.3
		c4,0,6.5,2.7,6.5,7.2v11.8h-4.6v-11.5c0-2.3-1.3-3.3-2.9-3.3c-1.8,0-3.3,1.3-3.9,2v12.9h-4.6V147.3z M163.3,151c-2.1,0-3,0.9-3,2.1
		h-4.5c0-3.7,2.4-6.3,7.5-6.3c5.1,0,7.6,2.7,7.6,6.4v12.6h-2.7l-1.3-1.8c-1.3,1.2-2.9,2.2-5.7,2.2c-3.3,0-6.2-1.9-6.2-5.5
		c0-3.8,2.5-6,7.5-6h3.8v-1.2C166.3,152,165.4,151,163.3,151z M143.3,147.3h2.7l1.3,1.8c0.9-1,2.4-2.3,4.8-2.3h1v4.4h-1
		c-2,0-3.2,0.5-4.2,1.7v12.9h-4.6V147.3z M118.8,149.5c0-5.6,3.7-8.9,9.9-8.9c5.4,0,9.4,2.9,9.4,8.6h-5c0-2.5-1.9-4-4.7-4
		c-3.1,0-4.6,1.6-4.6,4.1v8.3c0,2.7,1.6,4.3,4.5,4.3c1.9,0,3.8-1,4.8-2.4v-2.7h-4.4v-4.2h9.4v13.4h-2.7l-1.4-2.1
		c-1.5,1.7-3.7,2.6-6.2,2.6c-5.7,0-9.1-3.3-9.1-8.8V149.5z M106.6,151c-2.1,0-3,0.9-3,2.1h-4.5c0-3.7,2.4-6.3,7.5-6.3
		s7.6,2.7,7.6,6.4v12.6h-2.7l-1.3-1.8c-1.3,1.2-2.9,2.2-5.7,2.2c-3.3,0-6.2-1.9-6.2-5.5c0-3.8,2.5-6,7.5-6h3.8v-1.2
		C109.6,152,108.6,151,106.6,151z M78.1,153.7c0-4.6,3-6.8,6.6-6.8c2.7,0,4.3,1.1,5.5,2.3l1.3-1.8h2.7v17.5c0,4.9-3.3,7.2-7.9,7.2
		c-4.7,0-7.7-2.3-7.7-6.1v-0.1h4.6v0.1c0,0.8,0.7,1.9,3.1,1.9c2.4,0,3.4-1.3,3.4-3.1v-2.1c-0.8,0.7-2.3,1.7-4.9,1.7
		c-3.6,0-6.6-2.2-6.6-6.8V153.7z M58.5,153.7c0-4.3,3.2-6.9,8.1-6.9c4.6,0,7.7,2.4,7.7,6.8v4.4H63.1v1.3c0,1.6,1.1,2.7,3.5,2.7
		c1.8,0,2.8-0.7,3.1-1.9h4.6c-0.4,3.8-3.2,6.1-7.7,6.1c-4.9,0-8.1-2.4-8.1-6.8V153.7z M31.1,141H34H36l6.5,11l6.5-11h4.7v24.8h-4.9
		V150l-4.9,8.2h-3.1L36,150v15.9h-2h-2.9V141z"/>
	<path class="st0" d="M245.6,122.4h-12.2l0.1-49.7c0-4.2-2.3-8.2-6-10.3h0L133.6,8c-3.7-2.1-8.2-2.1-11.9,0L27.6,62.1
		c-3.7,2.1-6,6.1-6,10.3l-0.1,50H9.4c-1.4,0-3,1.5-3,2.9v58c0,1.4,1.6,3,3,3h12.1l0,5.5c0,4.2,2.3,8.2,5.9,10.3l93.9,54.4
		c1.8,1.1,3.9,1.6,6,1.6c2.1,0,4.1-0.5,5.9-1.6l94.1-54.1c3.7-2.1,6-6.1,6-10.3l0-5.8h12.2c1.4,0,3-1.6,3-3v-58
		C248.6,124,247,122.4,245.6,122.4z M242.9,127.9l-0.1,52.8h-16.5h-0.2l0,11.4c0,1.7-0.9,3.2-2.4,4.1l-94.1,54.1
		c-1.5,0.8-3.3,0.8-4.7,0L31,195.9c-1.5-0.8-2.4-2.4-2.3-4.1l0-11.1h0H12.2l-0.1-52.8l16.7,0l0.1-55.5c0-1.7,0.9-3.2,2.4-4.1
		l94.1-54.1c0.7-0.4,1.5-0.6,2.3-0.6c0.8,0,1.6,0.2,2.4,0.6l93.9,54.4h0c1.5,0.8,2.3,2.4,2.3,4.1l-0.1,55.2H242.9L242.9,127.9z"/>
</g>
</svg>
